<svg width="338" height="422" viewBox="0 0 338 422" fill="none" xmlns="http://www.w3.org/2000/svg">
<g clip-path="url(#clip0_460_159)">
<path d="M221.641 294.438C230.157 296.404 239.664 293.702 245.861 287.555C252.059 281.408 254.83 271.929 252.923 263.408C252.006 259.304 250.108 255.509 248.273 251.839C247.436 250.164 246.57 248.432 245.816 246.705C243.586 241.6 242.686 237.174 243.063 233.173C243.524 228.269 246.114 224.005 249.822 222.046C255.109 219.251 261.818 221.491 265.712 225.147C269.382 228.592 271.951 233.717 273.567 240.812C277.564 258.355 273.554 276.817 263.103 288.994C254.911 298.538 240.126 306.829 225.562 303.838C223.778 303.472 221.994 302.942 220.26 302.264C213.855 299.761 207.923 295.122 203.304 289.184C202.957 289.597 202.606 290.007 202.251 290.412C207.018 296.452 213.108 301.174 219.682 303.743C221.501 304.454 223.371 305.01 225.243 305.394C240.441 308.515 255.816 299.926 264.311 290.029C266.998 286.899 269.273 283.367 271.11 279.55C276.636 268.064 278.2 253.99 275.118 240.461C273.429 233.047 270.709 227.659 266.801 223.99C261.699 219.199 254.411 217.823 249.077 220.641C244.902 222.848 241.991 227.592 241.48 233.022C241.077 237.298 242.018 241.981 244.358 247.339C245.129 249.104 246.004 250.855 246.851 252.548C248.643 256.132 250.497 259.839 251.372 263.753C253.163 271.755 250.559 280.655 244.74 286.427C238.921 292.199 229.994 294.736 221.997 292.89C216.337 291.584 211.217 288.098 207.748 283.427C207.427 283.878 207.103 284.325 206.775 284.77C210.461 289.538 215.779 293.085 221.641 294.438Z" fill="black"/>
<path d="M91.4992 279.204C85.7678 279.081 70.5434 278.753 68.2061 271.645C68.0809 271.264 68.013 270.877 67.9973 270.495C67.9988 270.457 67.9974 270.42 67.9936 270.382C67.9759 269.132 68.5232 267.948 69.5084 267.261C69.8686 267.01 69.9561 266.516 69.7047 266.156C69.4531 265.796 68.9576 265.708 68.5977 265.958C67.596 266.656 66.9063 267.7 66.5939 268.874C65.664 267.876 65.2404 266.777 65.3606 265.644C65.504 264.282 66.4159 263.173 67.2004 262.822C67.6007 262.643 67.7798 262.173 67.5994 261.772C67.4197 261.372 66.949 261.193 66.5481 261.372C65.6364 261.781 64.6099 262.775 64.09 264.161C63.5113 262.599 63.5896 260.781 64.3869 259.421C65.7806 257.054 69.0472 256.943 71.7367 257.112C73.4346 257.218 75.1587 257.524 76.8263 257.819C77.6261 257.961 78.4259 258.102 79.2278 258.224C80.7538 258.457 82.3798 258.678 84.0049 258.597C84.8472 258.556 85.9315 258.435 86.85 257.864C88.3925 256.905 88.9256 255.118 89.3966 253.542L89.4381 253.404C91.5398 246.382 95.6882 239.989 101.432 234.914C103.833 232.793 106.479 230.955 109.277 229.443C109.418 228.758 109.569 228.074 109.727 227.391C106.397 229.059 103.253 231.183 100.378 233.723C94.411 238.995 90.1014 245.643 87.9144 252.947L87.8728 253.086C87.4633 254.457 87.04 255.873 86.0088 256.515C85.4039 256.891 84.6158 256.976 83.9245 257.01C82.4469 257.084 80.9115 256.874 79.4658 256.654C78.6766 256.533 77.8893 256.394 77.1019 256.254C75.3911 255.951 73.6219 255.638 71.8343 255.526C68.9363 255.345 64.8688 255.468 63.0159 258.614C61.5753 261.062 61.8907 264.499 63.779 266.769C63.7915 266.783 63.8046 266.798 63.818 266.812C64.0057 267.976 64.65 269.461 66.4304 270.872C66.4705 271.295 66.5576 271.721 66.6953 272.139C69.3844 280.317 84.8591 280.65 91.4667 280.793C99.7358 280.971 107.913 279.268 115.183 275.862C114.941 275.39 114.704 274.916 114.473 274.439C107.431 277.731 99.5113 279.377 91.4992 279.204Z" fill="black"/>
<path d="M141.241 173.676C142.003 172.939 142.106 171.632 142.204 170.367L142.214 170.238C142.267 169.567 142.339 168.899 142.429 168.232C140.664 170.435 138.915 172.65 137.195 174.886C137.99 174.806 138.786 174.686 139.543 174.484C140.133 174.326 140.797 174.106 141.241 173.676Z" fill="#18B6AC"/>
<path d="M248.988 89.6093C244.239 92.0303 239.49 94.451 234.742 96.8721C229.338 92.7239 222.472 90.4198 214.106 90.9634C204.744 85.6175 198.319 84.0977 186.775 81.1968C185.259 80.8158 183.387 80.5813 182.206 81.8108C180.982 83.0858 181.317 85.0673 181.748 86.6614C183.555 93.3297 185.361 99.9982 187.168 106.667C185.138 109.347 183.279 112.204 181.484 115.11C184.331 116.536 187.272 117.787 190.296 118.857C190.71 119.003 190.928 119.458 190.782 119.871L190.748 119.952C190.575 120.312 190.153 120.492 189.767 120.355C186.637 119.247 183.595 117.95 180.651 116.469C179.359 118.59 178.093 120.726 176.812 122.83C181.479 123.287 186.082 123.452 190.51 123.311C190.949 123.297 191.317 123.642 191.331 124.08C191.336 124.212 191.307 124.338 191.253 124.449C191.129 124.708 190.869 124.889 190.562 124.899C185.823 125.05 180.888 124.856 175.889 124.333C175.793 124.487 175.698 124.641 175.602 124.794C172.793 129.301 169.775 133.659 166.625 137.925C166.942 137.927 167.24 138.12 167.362 138.432C167.445 138.646 167.43 138.873 167.338 139.064C167.253 139.24 167.105 139.384 166.909 139.46C166.201 139.735 165.5 140.035 164.806 140.36C158.3 148.974 151.312 157.25 144.503 165.659C144.159 167.212 143.923 168.783 143.799 170.364L143.789 170.493C143.673 171.98 143.541 173.664 142.348 174.818C141.638 175.505 140.697 175.82 139.956 176.019C138.615 176.378 137.222 176.499 135.898 176.582C134.311 178.674 132.75 180.786 131.227 182.924C130.516 183.921 129.813 184.928 129.119 185.943C129.092 186.084 129.026 186.22 128.921 186.333C128.208 187.1 127.958 188.209 128.2 189.274C128.213 189.312 128.222 189.351 128.229 189.391C128.313 189.712 128.442 190.028 128.618 190.327C131.983 196.073 145.354 193.495 150.387 192.525C157.739 191.108 164.628 187.977 170.312 183.47C170.656 183.197 171.156 183.255 171.429 183.598C171.625 183.845 171.651 184.172 171.523 184.437C171.473 184.542 171.399 184.637 171.302 184.714C165.419 189.379 158.291 192.62 150.69 194.084C144.852 195.21 131.18 197.846 127.245 191.128C127.049 190.793 126.893 190.442 126.777 190.083C126.672 190.031 126.571 189.978 126.472 189.924C118.983 201.529 112.792 214.192 109.727 227.392C109.568 228.074 109.418 228.758 109.277 229.444C107.84 236.402 107.291 243.501 107.896 250.665C108.591 258.905 110.862 266.996 114.472 274.439C114.704 274.916 114.94 275.391 115.183 275.862C118.517 282.351 122.881 288.312 128.114 293.401C131.741 296.93 135.853 300.042 140.28 302.564L140.291 302.467C141.142 294.887 144.198 287.58 149.129 281.33C154.211 274.89 160.838 270.109 168.295 267.501C169.222 267.177 170.167 266.886 171.104 266.636C171.528 266.523 171.964 266.775 172.078 267.199C172.129 267.389 172.106 267.583 172.027 267.748C171.93 267.949 171.749 268.109 171.516 268.171C170.618 268.411 169.711 268.69 168.821 269.001C161.752 271.473 155.203 276.201 150.378 282.315C145.63 288.331 142.688 295.361 141.871 302.646L141.855 302.789C141.833 302.988 141.81 303.189 141.786 303.393C150.819 308.191 161.048 310.534 171.103 309.028C177.523 308.066 183.365 305.702 188.662 302.33C189.274 301.606 189.865 300.878 190.438 300.144C205.217 281.188 209.237 260.432 201.185 244.624C200.985 244.232 201.142 243.755 201.532 243.556C201.923 243.357 202.402 243.514 202.601 243.905C208.884 256.237 208.119 271.419 200.876 286.473C198.841 290.7 196.297 294.916 193.254 299.057C196.473 296.511 199.469 293.594 202.25 290.412C202.605 290.007 202.956 289.598 203.303 289.184C204.501 287.758 205.658 286.283 206.774 284.77C207.102 284.325 207.426 283.878 207.747 283.427C212.598 276.611 216.662 269.075 220.01 261.615C236.836 224.12 244.139 183.112 249.371 142.334C245.063 140.182 240.555 138.439 235.881 137.12C235.458 137.001 235.212 136.562 235.331 136.14C235.452 135.715 235.889 135.472 236.311 135.591C240.902 136.886 245.336 138.583 249.582 140.666C249.906 137.916 250.04 135.114 249.983 132.311C244.984 132.109 240.071 132.233 235.378 132.689C234.94 132.732 234.551 132.412 234.508 131.976C234.466 131.538 234.785 131.15 235.221 131.108C239.95 130.648 244.897 130.521 249.93 130.719C249.851 129.034 249.703 127.352 249.485 125.684C254.433 112.645 254.546 106.349 255.033 93.1907C255.087 91.7163 254.936 89.9409 253.566 89.0892C252.147 88.2061 250.378 88.9006 248.988 89.6093Z" fill="#18B6AC"/>
<path d="M189.767 120.355C190.154 120.491 190.575 120.312 190.748 119.952L190.782 119.871C190.928 119.458 190.71 119.003 190.296 118.857C187.272 117.787 184.331 116.536 181.484 115.11C176.323 112.525 171.471 109.366 166.986 105.664C166.647 105.384 166.146 105.432 165.867 105.77C165.588 106.108 165.635 106.609 165.974 106.888C170.517 110.638 175.429 113.842 180.651 116.469C183.595 117.95 186.637 119.247 189.767 120.355Z" fill="black"/>
<path d="M191.254 124.449C191.308 124.337 191.336 124.212 191.332 124.08C191.317 123.641 190.95 123.297 190.511 123.311C186.082 123.451 181.479 123.287 176.812 122.829C171.325 122.292 165.749 121.349 160.263 120.021C159.836 119.917 159.404 120.179 159.304 120.605C159.2 121.032 159.463 121.461 159.89 121.564C165.191 122.848 170.577 123.777 175.889 124.332C180.889 124.856 185.823 125.049 190.563 124.898C190.87 124.889 191.13 124.707 191.254 124.449Z" fill="black"/>
<path d="M236.312 135.591C235.889 135.472 235.453 135.715 235.332 136.14C235.213 136.562 235.459 137.001 235.882 137.12C240.556 138.438 245.064 140.182 249.372 142.334C253.07 144.181 256.621 146.329 260.002 148.768C260.358 149.025 260.855 148.945 261.111 148.589L261.184 148.468C261.347 148.128 261.249 147.709 260.931 147.48C257.329 144.882 253.537 142.606 249.582 140.666C245.336 138.583 240.902 136.886 236.312 135.591Z" fill="black"/>
<path d="M234.509 131.976C234.552 132.412 234.941 132.732 235.379 132.689C240.072 132.233 244.985 132.109 249.984 132.311C255.204 132.521 260.518 133.087 265.774 134.003C266.133 134.066 266.477 133.878 266.627 133.566C266.658 133.501 266.68 133.431 266.693 133.357C266.769 132.925 266.478 132.513 266.046 132.438C260.682 131.504 255.258 130.928 249.931 130.718C244.898 130.52 239.951 130.648 235.223 131.108C234.786 131.15 234.467 131.538 234.509 131.976Z" fill="black"/>
<path d="M209.031 115.311C209.581 113.886 209.009 112.337 207.753 111.852C206.497 111.366 205.033 112.127 204.482 113.552C203.932 114.976 204.504 116.525 205.76 117.01C207.016 117.496 208.48 116.735 209.031 115.311Z" fill="black"/>
<path d="M221.878 120.279C221.328 121.704 221.9 123.252 223.156 123.738C224.412 124.224 225.876 123.463 226.427 122.038C226.977 120.614 226.405 119.065 225.149 118.58C223.893 118.094 222.429 118.855 221.878 120.279Z" fill="black"/>
<path d="M209.981 123.503C208.161 124.284 208.989 126.654 209.96 128.19C209.954 128.232 209.951 128.276 209.952 128.32C209.963 128.853 209.858 129.567 209.615 130.265C209.562 130.391 209.512 130.519 209.467 130.649C209.017 131.696 208.237 132.62 207.048 132.721C205.642 132.84 203.857 132.033 202.804 130.802C202.249 130.153 202.003 129.486 202.13 128.973C202.235 128.547 201.974 128.116 201.548 128.011C201.121 127.906 200.689 128.166 200.586 128.591C200.332 129.624 200.69 130.775 201.596 131.833C202.978 133.45 205.277 134.466 207.185 134.304C207.969 134.238 208.639 133.967 209.202 133.562C209.346 134.24 209.66 134.892 210.196 135.469C211.499 136.872 213.883 137.667 215.992 137.401C217.374 137.227 218.414 136.617 218.92 135.682L218.937 135.648C219.12 135.268 218.973 134.808 218.598 134.605C218.212 134.396 217.729 134.539 217.521 134.925C217.269 135.39 216.639 135.719 215.792 135.825C214.185 136.028 212.322 135.424 211.361 134.389C210.547 133.513 210.594 132.3 210.968 131.221C211.019 131.098 211.067 130.975 211.111 130.851C211.377 130.224 211.739 129.666 212.081 129.278C212.369 129.186 212.655 129.089 212.938 128.985C213.65 128.725 214.366 128.418 214.905 127.896C215.444 127.375 215.779 126.595 215.583 125.867C215.556 125.768 215.521 125.672 215.478 125.58C215.261 125.115 214.851 124.739 214.418 124.439C213.652 123.907 212.767 123.542 211.848 123.38C211.222 123.269 210.557 123.255 209.981 123.503Z" fill="black"/>
<path d="M200.876 286.472C208.12 271.418 208.885 256.236 202.602 243.904C202.403 243.513 201.924 243.357 201.533 243.556C201.143 243.754 200.985 244.232 201.185 244.624C209.238 260.432 205.218 281.187 190.438 300.144C189.866 300.878 189.275 301.606 188.663 302.33C184.129 307.695 178.47 312.827 171.066 318.307C164.556 323.126 156.751 326.364 148.495 327.673C142.834 328.57 127.797 330.953 124.231 324.373C124.042 324.023 123.906 323.657 123.823 323.285C123.817 323.245 123.809 323.204 123.798 323.165C123.559 321.938 123.888 320.677 124.733 319.827C125.042 319.518 125.041 319.014 124.729 318.704C124.417 318.394 123.914 318.396 123.604 318.707C122.745 319.571 122.252 320.722 122.153 321.933C121.06 321.116 120.447 320.109 120.363 318.973C120.262 317.606 120.962 316.353 121.67 315.868C122.034 315.62 122.125 315.126 121.876 314.764C121.628 314.402 121.133 314.309 120.771 314.557C119.946 315.122 119.113 316.284 118.849 317.74C118 316.308 117.75 314.505 118.297 313.021C119.253 310.436 122.441 309.754 125.117 309.441C126.808 309.244 128.56 309.238 130.254 309.232C131.064 309.23 131.875 309.227 132.685 309.205C134.228 309.163 135.868 309.091 137.451 308.722C138.273 308.532 139.319 308.22 140.12 307.495C141.303 306.425 141.607 304.865 141.786 303.392C141.811 303.189 141.834 302.987 141.856 302.788L141.872 302.645C142.689 295.361 145.63 288.331 150.379 282.314C155.203 276.2 161.753 271.472 168.822 269C169.712 268.69 170.619 268.41 171.517 268.17C171.75 268.108 171.931 267.949 172.028 267.748C172.107 267.582 172.13 267.389 172.079 267.198C171.965 266.774 171.528 266.522 171.105 266.636C170.168 266.886 169.223 267.177 168.296 267.501C160.839 270.108 154.211 274.89 149.13 281.33C144.199 287.579 141.142 294.887 140.292 302.467L140.281 302.564L140.275 302.611C140.116 304.033 139.952 305.502 139.052 306.317C138.524 306.794 137.764 307.019 137.09 307.175C135.65 307.51 134.102 307.577 132.64 307.617C131.843 307.639 131.045 307.641 130.247 307.644C128.508 307.65 126.711 307.656 124.931 307.864C122.047 308.2 118.073 309.033 116.805 312.471C115.82 315.145 116.746 318.463 119.008 320.361C119.023 320.373 119.038 320.384 119.053 320.396C119.445 321.509 120.344 322.857 122.347 323.928C122.462 324.338 122.623 324.741 122.833 325.128C126.935 332.699 142.219 330.277 148.746 329.242C157.253 327.894 165.299 324.554 172.013 319.585C180.535 313.277 186.789 307.41 191.693 301.121C192.228 300.436 192.748 299.747 193.255 299.057C196.298 294.915 198.842 290.7 200.876 286.472Z" fill="black"/>
<path d="M240.49 145.507C235.646 150.888 228.743 154.487 221.551 155.383C214.36 156.28 206.777 154.485 200.746 150.46C200.381 150.216 199.887 150.314 199.644 150.679C199.403 151.039 199.499 151.536 199.864 151.781C206.208 156.015 214.185 157.903 221.75 156.96C229.315 156.017 236.577 152.23 241.673 146.571C241.725 146.513 241.767 146.45 241.799 146.384C241.948 146.074 241.882 145.69 241.613 145.449C241.286 145.155 240.783 145.181 240.49 145.507Z" fill="black"/>
<path d="M120.702 224.309C120.842 223.893 120.618 223.443 120.202 223.303C119.785 223.163 119.332 223.387 119.195 223.802C112.57 243.516 116.097 266.744 127.773 280.288C128.06 280.621 128.562 280.659 128.895 280.372C128.98 280.299 129.047 280.211 129.092 280.115C129.225 279.839 129.191 279.499 128.978 279.252C117.829 266.321 114.349 243.214 120.702 224.309Z" fill="black"/>
<path d="M190.528 98.7604L187.322 87.1424C190.423 87.7115 198.641 89.4233 202.635 92.2103C202.995 92.4617 203.49 92.3741 203.742 92.0143L203.807 91.9035C203.973 91.5585 203.869 91.1348 203.544 90.9084C198.285 87.2381 186.828 85.4359 186.343 85.3611C186.077 85.3199 185.807 85.4162 185.628 85.6176C185.449 85.8187 185.384 86.0963 185.456 86.3565L188.995 99.1811C189.112 99.6041 189.55 99.8529 189.973 99.7369C190.396 99.6205 190.644 99.1838 190.528 98.7604Z" fill="black"/>
<path d="M249.259 98.3409L237.724 103.004C237.317 103.168 237.121 103.632 237.286 104.038C237.451 104.444 237.915 104.641 238.322 104.476L248.696 100.283C248.501 103.279 247.811 110.965 245.675 114.936C245.474 115.317 245.612 115.804 245.999 116.012C246.386 116.219 246.868 116.075 247.076 115.689C247.162 115.529 247.245 115.366 247.326 115.197C249.942 109.759 250.337 99.5516 250.353 99.1068C250.362 98.8372 250.235 98.5818 250.014 98.427C249.793 98.2723 249.509 98.2399 249.259 98.3409Z" fill="black"/>
<path d="M217.314 101.967C219.26 99.7987 222.043 98.4253 224.951 98.199C225.243 98.1761 225.486 97.998 225.605 97.7513C225.663 97.6294 225.692 97.4902 225.68 97.3453C225.646 96.9082 225.263 96.5811 224.825 96.6153C221.515 96.8727 218.345 98.4365 216.129 100.906C215.837 101.233 215.864 101.734 216.191 102.028C216.518 102.321 217.021 102.293 217.314 101.967Z" fill="black"/>
<path d="M212.809 97.9877C213.137 98.2808 213.639 98.2537 213.932 97.9273C215.878 95.7587 218.66 94.3853 221.568 94.1592C221.861 94.1365 222.104 93.9583 222.222 93.7116C222.281 93.5896 222.31 93.4505 222.298 93.3059C222.263 92.8686 221.88 92.5414 221.443 92.5757C218.132 92.8328 214.962 94.3966 212.747 96.8658C212.454 97.1924 212.482 97.695 212.809 97.9877Z" fill="black"/>
<path d="M127.246 191.128C131.18 197.846 144.852 195.21 150.691 194.084C158.292 192.619 165.419 189.379 171.302 184.714C171.399 184.637 171.473 184.542 171.524 184.437C171.652 184.171 171.626 183.845 171.43 183.598C171.156 183.254 170.656 183.197 170.312 183.469C164.629 187.976 157.739 191.107 150.388 192.524C145.354 193.495 131.983 196.073 128.618 190.327C128.443 190.027 128.314 189.712 128.23 189.39C128.223 189.351 128.213 189.312 128.201 189.274C127.958 188.209 128.208 187.1 128.921 186.333C129.026 186.22 129.092 186.084 129.119 185.943C129.169 185.683 129.088 185.404 128.88 185.21C128.558 184.911 128.055 184.929 127.756 185.25C127.031 186.029 126.62 187.036 126.539 188.09C125.627 187.417 125.101 186.584 124.999 185.632C124.871 184.44 125.443 183.326 126.046 182.883C126.4 182.624 126.476 182.127 126.215 181.773C125.955 181.42 125.458 181.343 125.104 181.603C124.406 182.115 123.719 183.115 123.48 184.353C122.775 183.144 122.548 181.65 122.965 180.391C123.724 178.091 126.541 177.389 128.909 177.032C130.414 176.806 131.981 176.748 133.497 176.693C134.226 176.666 134.954 176.64 135.68 176.596C135.753 176.591 135.826 176.587 135.898 176.582C137.222 176.499 138.615 176.378 139.956 176.018C140.697 175.82 141.638 175.505 142.348 174.818C143.542 173.664 143.673 171.979 143.789 170.493L143.799 170.364C143.923 168.783 144.159 167.212 144.503 165.659C145.581 160.79 147.719 156.11 150.805 151.921C154.471 146.942 159.383 142.899 164.807 140.359C165.5 140.035 166.201 139.734 166.909 139.46C167.105 139.384 167.253 139.239 167.338 139.064C167.43 138.873 167.445 138.646 167.362 138.432C167.24 138.119 166.942 137.927 166.625 137.925C166.528 137.924 166.429 137.941 166.333 137.979C159.71 140.544 153.898 145.039 149.523 150.978C145.695 156.176 143.264 162.104 142.429 168.233C142.339 168.899 142.267 169.568 142.214 170.238L142.204 170.368C142.106 171.632 142.003 172.939 141.241 173.676C140.796 174.106 140.133 174.326 139.543 174.484C138.786 174.687 137.99 174.806 137.195 174.886C136.653 174.941 136.112 174.978 135.583 175.01C134.868 175.053 134.153 175.08 133.437 175.106C131.877 175.163 130.263 175.222 128.67 175.462C126.073 175.853 122.499 176.734 121.455 179.89C120.641 182.349 121.582 185.336 123.694 186.991C123.702 186.997 123.71 187.003 123.719 187.009C124.088 187.943 124.865 189.045 126.472 189.925C126.571 189.979 126.672 190.032 126.777 190.084C126.893 190.442 127.049 190.792 127.246 191.128Z" fill="black"/>
<path d="M216.5 169.096C209.878 171.662 204.065 176.157 199.691 182.096C195.446 187.86 192.919 194.52 192.381 201.356L192.371 201.485C192.272 202.75 192.171 204.057 191.409 204.794C190.964 205.224 190.3 205.444 189.711 205.602C188.437 205.943 187.055 206.049 185.75 206.128C185.035 206.171 184.319 206.197 183.603 206.224C182.043 206.28 180.431 206.339 178.837 206.579C176.24 206.971 172.666 207.853 171.623 211.008C170.809 213.467 171.75 216.453 173.861 218.108C173.869 218.115 173.878 218.121 173.886 218.127C174.279 219.118 175.13 220.298 176.945 221.201C177.061 221.559 177.217 221.91 177.414 222.246C181.347 228.964 195.02 226.328 200.858 225.203C208.459 223.737 215.586 220.497 221.469 215.832C221.566 215.755 221.64 215.66 221.691 215.555C221.819 215.29 221.793 214.963 221.597 214.717C221.323 214.373 220.823 214.315 220.48 214.588C214.796 219.094 207.906 222.225 200.555 223.643C195.521 224.613 182.15 227.191 178.786 221.445C178.61 221.146 178.481 220.831 178.397 220.51C178.39 220.469 178.38 220.429 178.368 220.391C178.125 219.326 178.375 218.217 179.089 217.451C179.387 217.132 179.369 216.628 179.047 216.329C178.726 216.03 178.223 216.047 177.924 216.368C177.199 217.148 176.788 218.154 176.706 219.208C175.794 218.535 175.268 217.701 175.167 216.75C175.039 215.558 175.611 214.444 176.213 214.002C176.567 213.742 176.643 213.245 176.383 212.892C176.123 212.538 175.625 212.462 175.271 212.721C174.573 213.233 173.886 214.233 173.647 215.471C172.942 214.262 172.716 212.768 173.133 211.509C173.889 209.213 176.709 208.507 179.076 208.15C180.58 207.924 182.148 207.867 183.663 207.811C184.392 207.785 185.121 207.758 185.848 207.714C187.235 207.63 188.707 207.516 190.124 207.137C190.864 206.938 191.806 206.623 192.515 205.936C193.709 204.781 193.841 203.097 193.957 201.611L193.967 201.482C194.481 194.941 196.903 188.564 200.972 183.039C205.107 177.424 210.827 172.999 217.077 170.578C217.273 170.502 217.421 170.357 217.505 170.182C217.597 169.991 217.613 169.763 217.53 169.55C217.371 169.141 216.91 168.938 216.5 169.096Z" fill="black"/>
</g>
<defs>
<clipPath id="clip0_460_159">
<rect width="337.709" height="270.63" fill="white" transform="translate(0 304.313) rotate(-64.3041)"/>
</clipPath>
</defs>
</svg>
