<svg width="344" height="381" viewBox="0 0 344 381" fill="none" xmlns="http://www.w3.org/2000/svg">
<path d="M253.525 282.444C248.809 283.298 244.145 284.438 239.559 285.867C238.536 286.186 238.103 284.585 239.118 284.269C243.81 282.806 248.587 281.645 253.416 280.78C253.127 277.525 252.409 274.146 251.341 270.709C246.956 274.803 242.358 278.664 237.549 282.257C236.693 282.897 235.867 281.457 236.712 280.826C241.627 277.153 246.319 273.192 250.78 268.982C249.248 264.497 247.169 259.942 244.751 255.481C241.892 263.551 238.305 271.345 234.016 278.756C233.482 279.68 232.05 278.844 232.585 277.919C236.867 270.519 240.451 262.744 243.284 254.677C243.41 254.318 243.698 254.15 243.997 254.12C239.752 246.531 234.59 239.27 229.554 233.141C231.601 236.387 233.349 239.821 234.773 243.399C235.168 244.392 233.564 244.819 233.174 243.84C231.749 240.257 229.978 236.818 227.89 233.577C226.081 230.767 224.037 228.115 221.776 225.654C220.691 224.472 219.478 223.08 217.899 222.575C216.115 222.003 215.004 223.25 214.096 224.607C212.77 226.59 211.415 228.564 210.294 230.673C208.868 233.356 207.91 236.221 207.27 239.186C207.214 239.441 206.955 239.722 206.691 239.765C205.724 239.921 204.763 240.124 203.806 240.331C191.066 243.091 178.45 247.992 167.78 255.548C167.503 255.744 166.99 255.679 166.775 255.419C161.351 248.837 153.031 245.086 144.521 245.354C142.634 253.255 141.692 261.336 141.72 269.461C141.724 270.529 140.066 270.527 140.062 269.461C140.033 260.992 141.041 252.548 143.058 244.322C143.147 243.956 143.499 243.734 143.857 243.714C152.761 243.213 161.671 247.003 167.502 253.74C171.079 251.255 174.855 249.074 178.775 247.177C184.861 244.232 191.248 241.898 197.766 240.111C200.406 239.388 203.085 238.714 205.787 238.251C206.592 234.75 207.877 231.416 209.716 228.321C210.41 227.153 211.165 226.024 211.918 224.894C212.697 223.727 213.423 222.404 214.575 221.559C215.865 220.613 217.186 220.591 218.436 221.04C210.055 212.493 203.026 204.764 197.852 192.601C191.792 178.354 192.933 162.226 186.824 148.025C181.122 134.771 170.528 123.713 157.935 116.789C140.388 107.143 117.342 103.577 97.5301 109.267C97.6739 109.771 97.8121 110.277 97.9646 110.778C98.2763 111.802 96.6756 112.236 96.3659 111.218C96.2174 110.73 96.0817 110.239 95.9411 109.748C93.6825 110.461 91.4655 111.284 89.3122 112.249C89.6424 113.018 88.4435 113.658 87.8417 112.948C83.4519 115.063 79.3216 117.717 75.5811 120.982C51.5822 141.927 44.6793 178.649 50.8782 208.751C56.4923 236.013 81.3221 265.22 107.1 285.403C107.081 285.31 107.064 285.216 107.036 285.125L106.978 284.958C106.966 284.931 106.944 284.879 106.934 284.858L106.81 284.638C106.803 284.627 106.755 284.557 106.729 284.517C106.699 284.483 106.64 284.411 106.63 284.4L106.443 284.216C106.111 283.914 106.137 283.35 106.443 283.044C106.77 282.718 107.285 282.743 107.615 283.044C108.148 283.531 108.53 284.193 108.691 284.897C108.825 285.479 108.829 286.086 108.73 286.677C115.054 291.527 121.411 295.821 127.534 299.397C127.136 297.475 126.741 295.565 126.322 293.685C126.09 292.644 127.689 292.204 127.92 293.245C128.459 295.659 128.962 298.083 129.48 300.504C129.822 300.697 130.169 300.901 130.509 301.089C134.777 303.447 137.682 307.167 140.202 311.198C152.267 308.42 164.317 305.576 176.374 302.762C177.414 302.519 177.854 304.118 176.815 304.36C164.914 307.138 153.019 309.944 141.11 312.688C142.572 315.14 143.94 317.658 145.417 320.019C146.671 322.023 148.162 323.844 149.831 325.507C158.756 320.098 167.68 314.689 176.605 309.279C177.521 308.724 178.353 310.159 177.442 310.711C168.652 316.038 159.863 321.365 151.074 326.693C153.105 328.52 155.371 330.131 157.827 331.521C173.847 340.586 197.678 340.484 213.534 333.115C213.462 332.493 214.32 331.873 214.963 332.412C214.966 332.415 214.968 332.417 214.971 332.419C216.491 331.645 217.933 330.805 219.272 329.892C229.323 323.036 237.689 317.77 243.687 310.742C243.473 310.588 243.258 310.43 243.044 310.277C242.184 309.66 243.012 308.222 243.881 308.845C244.167 309.05 244.447 309.262 244.732 309.469C249.156 303.855 252.139 297.067 253.346 287.535C253.554 285.889 253.599 284.185 253.525 282.444Z" fill="#EFDCD5"/>
<path d="M214.576 221.559C213.424 222.404 212.698 223.726 211.919 224.894C211.165 226.024 210.41 227.153 209.716 228.321C207.877 231.416 206.593 234.75 205.788 238.251C203.086 238.714 200.407 239.388 197.767 240.111C191.249 241.898 184.862 244.232 178.776 247.177C174.856 249.074 171.079 251.255 167.503 253.739C161.672 247.003 152.762 243.213 143.858 243.714C143.5 243.734 143.148 243.956 143.058 244.322C141.042 252.547 140.034 260.992 140.063 269.461C140.067 270.527 141.725 270.529 141.721 269.461C141.693 261.336 142.635 253.255 144.521 245.354C153.032 245.085 161.352 248.837 166.776 255.419C166.991 255.679 167.504 255.744 167.781 255.548C178.451 247.992 191.067 243.091 203.807 240.331C204.764 240.124 205.724 239.921 206.691 239.765C206.956 239.722 207.215 239.441 207.27 239.186C207.911 236.221 208.869 233.356 210.295 230.673C211.416 228.564 212.771 226.59 214.097 224.607C215.005 223.25 216.116 222.003 217.9 222.575C219.478 223.08 220.692 224.472 221.777 225.654C224.037 228.115 226.082 230.767 227.891 233.577C229.978 236.818 231.75 240.257 233.175 243.84C233.565 244.819 235.169 244.392 234.774 243.399C233.35 239.821 231.602 236.387 229.555 233.141C227.618 230.07 225.416 227.167 222.949 224.481C221.768 223.195 220.171 221.662 218.437 221.04C217.187 220.591 215.866 220.613 214.576 221.559Z" fill="#332F28"/>
<path d="M186.248 294.474C188.249 294.474 189.872 292.241 189.872 289.486C189.872 286.73 188.249 284.497 186.248 284.497C184.246 284.497 182.624 286.73 182.624 289.486C182.624 292.241 184.246 294.474 186.248 294.474Z" fill="#332F28"/>
<path d="M215.742 270.686C213.741 270.686 212.118 272.92 212.118 275.675C212.118 278.43 213.741 280.664 215.742 280.664C217.744 280.664 219.366 278.43 219.366 275.675C219.366 272.92 217.743 270.686 215.742 270.686Z" fill="#332F28"/>
<path d="M213.021 299.684C213.171 299.664 212.935 299.689 212.905 299.691C212.821 299.697 212.737 299.701 212.653 299.702C212.472 299.706 212.29 299.698 212.109 299.68L211.985 299.667L211.998 299.667C211.916 299.652 211.834 299.637 211.752 299.619C211.588 299.584 211.426 299.54 211.267 299.489C210.924 299.379 210.783 299.319 210.427 299.118C210.279 299.036 210.136 298.946 209.996 298.851C209.82 298.731 209.826 298.735 209.693 298.623C209.141 298.159 208.81 297.765 208.485 297.176C208.481 297.169 208.478 297.16 208.474 297.152C208.433 296.505 208.321 295.861 208.113 295.235C208.139 295.216 208.169 295.203 208.195 295.183C209.641 294.052 209.355 292.607 209.67 291.029C209.888 289.94 208.377 289.865 208.377 289.865C206.185 290.516 203.591 291.417 202.303 293.499C201.812 294.293 202.321 294.948 203.05 295.353C204.007 295.884 205.239 296.116 206.374 295.939C206.455 296.521 206.625 297.085 206.869 297.616C206.876 300.177 205.284 302.804 202.86 303.674C202.439 303.826 202.156 304.239 202.281 304.694C202.393 305.101 202.878 305.425 203.301 305.273C205.859 304.355 207.65 302.096 208.261 299.555C208.367 299.655 208.472 299.757 208.586 299.849C209.977 300.985 211.674 301.529 213.462 301.283C213.906 301.222 214.149 300.654 214.041 300.264C213.91 299.785 213.467 299.623 213.021 299.684Z" fill="#332F28"/>
<path d="M176.375 302.762C164.318 305.577 152.267 308.42 140.202 311.199C139.877 311.273 139.554 311.35 139.229 311.425C138.19 311.664 138.63 313.262 139.67 313.023C140.15 312.912 140.63 312.799 141.111 312.688C153.019 309.944 164.914 307.139 176.815 304.361C177.854 304.118 177.414 302.519 176.375 302.762Z" fill="#332F28"/>
<path d="M176.605 309.28C167.681 314.689 158.756 320.098 149.831 325.507C149.811 325.52 149.791 325.532 149.77 325.544C148.859 326.097 149.691 327.531 150.607 326.976C150.763 326.882 150.918 326.787 151.074 326.693C159.863 321.366 168.653 316.038 177.442 310.711C178.353 310.159 177.521 308.725 176.605 309.28Z" fill="#332F28"/>
<path d="M178.685 314.549C173.8 320.581 168.915 326.613 164.03 332.645C163.364 333.467 164.53 334.647 165.202 333.817C170.087 327.785 174.972 321.753 179.858 315.721C180.523 314.9 179.357 313.72 178.685 314.549Z" fill="#332F28"/>
<path d="M243.285 254.677C240.452 262.744 236.867 270.519 232.585 277.919C232.05 278.845 233.482 279.68 234.017 278.756C238.305 271.345 241.892 263.551 244.751 255.481C244.794 255.36 244.841 255.239 244.884 255.118C245.111 254.471 244.534 254.066 243.998 254.12C243.698 254.15 243.411 254.318 243.285 254.677Z" fill="#332F28"/>
<path d="M237.549 282.257C242.358 278.664 246.956 274.803 251.342 270.71C253.167 269.006 254.965 267.274 256.71 265.487C257.456 264.723 256.285 263.549 255.538 264.314C253.985 265.905 252.396 267.458 250.78 268.982C246.32 273.192 241.628 277.153 236.712 280.826C235.867 281.457 236.693 282.897 237.549 282.257Z" fill="#332F28"/>
<path d="M268.606 279.054C263.507 279.302 258.433 279.881 253.416 280.78C248.587 281.645 243.81 282.806 239.118 284.269C238.103 284.585 238.536 286.186 239.559 285.867C244.145 284.438 248.81 283.298 253.525 282.444C258.504 281.542 263.54 280.958 268.607 280.712C269.668 280.66 269.675 279.002 268.606 279.054Z" fill="#332F28"/>
<path d="M213.534 333.115C213.553 333.279 213.621 333.442 213.791 333.585C218.579 337.599 223.503 341.895 227.042 347.1C228.655 349.472 230.449 352.637 229.573 355.613C229.202 356.87 228.347 357.862 227.345 358.674C226.517 359.346 227.696 360.513 228.518 359.846C235.179 354.443 228.769 345.993 224.539 341.373C221.587 338.149 218.317 335.225 214.971 332.419C214.968 332.417 214.966 332.415 214.963 332.413C214.32 331.873 213.462 332.493 213.534 333.115Z" fill="#332F28"/>
<path d="M224.365 352.669C223.992 352.422 223.448 352.595 223.231 352.966C222.994 353.372 223.154 353.852 223.528 354.1C224.503 354.747 225.059 355.965 225.109 357.127C225.164 358.394 224.759 359.553 223.759 360.379C223.413 360.664 223.463 361.256 223.759 361.551C224.1 361.893 224.585 361.837 224.931 361.551C227.659 359.298 227.254 354.584 224.365 352.669Z" fill="#332F28"/>
<path d="M217.615 356.29C218.101 357.159 218.556 358.038 218.866 358.969C218.975 359.295 219.067 359.628 219.129 359.967L219.151 360.101C219.156 360.131 219.163 360.19 219.165 360.213C219.175 360.354 219.185 360.494 219.184 360.635C219.183 360.747 219.149 360.88 219.164 360.989C219.162 360.995 219.162 360.993 219.161 361.001L219.131 361.147C219.107 361.255 219.077 361.362 219.041 361.467L219.001 361.579C218.824 361.926 218.632 362.253 218.416 362.577C218.168 362.95 218.343 363.495 218.713 363.711C219.12 363.949 219.599 363.787 219.847 363.414C220.414 362.564 220.833 361.68 220.841 360.635C220.856 358.803 219.915 357.007 219.046 355.454C218.525 354.522 217.093 355.357 217.615 356.29Z" fill="#332F28"/>
<path d="M216.416 362.132C213.158 363.031 208.551 361.603 208.016 357.853C207.801 356.353 208.22 354.836 208.776 353.456C208.943 353.041 208.593 352.546 208.197 352.437C207.724 352.307 207.345 352.599 207.177 353.016C206.165 355.528 205.802 358.586 207.505 360.896C208.882 362.765 211.076 363.718 213.334 363.983C214.505 364.12 215.719 364.044 216.857 363.73C217.884 363.447 217.448 361.847 216.416 362.132Z" fill="#332F28"/>
<path d="M126.322 293.686C126.741 295.566 127.136 297.476 127.534 299.397C129.541 309.097 131.616 319.113 137.18 327.349C140.395 332.106 144.793 335.822 150.153 337.933C153.85 339.388 157.857 339.969 161.728 340.779C166.347 341.746 170.957 342.79 175.594 343.67C179.558 344.423 183.596 344.697 187.558 345.456C191.673 346.245 195.457 347.778 198.731 350.434C199.552 351.1 200.732 349.934 199.903 349.261C197.175 347.048 194.116 345.424 190.726 344.486C187.459 343.583 184.069 343.254 180.719 342.808C176.366 342.23 172.088 341.257 167.792 340.358C163.334 339.424 158.826 338.618 154.402 337.536C148.646 336.129 143.618 332.974 139.934 328.326C136.361 323.819 134.172 318.354 132.53 312.893C131.304 308.816 130.37 304.665 129.48 300.504C128.962 298.083 128.459 295.66 127.921 293.245C127.689 292.204 126.09 292.645 126.322 293.686Z" fill="#332F28"/>
<path d="M243.044 310.277C243.258 310.43 243.473 310.588 243.687 310.743C249.567 314.978 255.593 319.631 259.94 325.479C261.911 328.131 264.06 331.677 263.309 335.142C263.005 336.541 262.249 337.728 261.231 338.719C260.466 339.465 261.638 340.637 262.403 339.891C269.414 333.063 261.094 323.529 255.946 318.613C252.455 315.28 248.638 312.3 244.732 309.469C244.447 309.263 244.167 309.05 243.881 308.845C243.012 308.223 242.184 309.66 243.044 310.277Z" fill="#332F28"/>
<path d="M258.251 332.338C257.878 332.09 257.334 332.264 257.116 332.635C256.879 333.04 257.04 333.521 257.414 333.769C258.389 334.416 258.944 335.634 258.995 336.795C259.05 338.063 258.644 339.222 257.644 340.048C257.299 340.333 257.349 340.925 257.644 341.22C257.986 341.562 258.47 341.506 258.816 341.22C261.545 338.967 261.14 334.253 258.251 332.338Z" fill="#332F28"/>
<path d="M253.895 334.614C253.134 333.865 251.961 335.037 252.723 335.787C254.446 337.483 254.751 340.249 253.547 342.309C251.489 343.257 249.104 343.619 246.981 342.654C245.289 341.886 243.947 340.414 243.298 338.676C242.928 337.686 241.325 338.115 241.699 339.117C242.516 341.304 244.123 343.188 246.278 344.146C249.002 345.357 251.943 344.925 254.565 343.662C254.807 343.545 254.934 343.367 254.975 343.173C256.588 340.498 256.123 336.807 253.895 334.614Z" fill="#332F28"/>
<path d="M108.691 284.897C108.53 284.193 108.148 283.531 107.615 283.044C107.285 282.743 106.77 282.718 106.443 283.044C106.137 283.35 106.111 283.914 106.443 284.216L106.63 284.4C106.64 284.411 106.699 284.483 106.729 284.517C106.755 284.557 106.803 284.627 106.81 284.638L106.934 284.858C106.944 284.879 106.966 284.931 106.978 284.958L107.036 285.125C107.064 285.216 107.081 285.31 107.1 285.403C107.106 285.432 107.114 285.461 107.12 285.49C107.126 285.528 107.136 285.593 107.138 285.617L107.148 285.84C107.15 285.991 107.139 286.14 107.127 286.29C107.127 286.291 107.127 286.291 107.127 286.292L107.11 286.391L107.07 286.582C107.033 286.741 106.986 286.898 106.931 287.052C106.921 287.079 106.879 287.177 106.874 287.191L106.793 287.363C106.723 287.498 106.646 287.629 106.562 287.755L106.451 287.914C106.572 287.742 106.407 287.965 106.379 287.996C106.281 288.108 106.177 288.214 106.065 288.312C106.055 288.322 105.984 288.378 105.95 288.407C105.91 288.433 105.843 288.48 105.832 288.487C105.726 288.554 105.615 288.61 105.503 288.664C105.47 288.676 105.376 288.715 105.35 288.723L105.167 288.774C105.136 288.781 105.008 288.801 104.994 288.806C104.932 288.811 104.871 288.817 104.81 288.819C104.362 288.834 103.981 289.189 103.981 289.648C103.981 290.086 104.36 290.492 104.81 290.477C106.897 290.407 108.402 288.632 108.729 286.677C108.829 286.086 108.825 285.479 108.691 284.897Z" fill="#332F28"/>
<path d="M99.9443 282.008C99.5892 281.735 99.0159 281.954 98.8101 282.306C98.56 282.733 98.7514 283.166 99.1075 283.44C99.4542 283.707 99.7935 284.126 100.044 284.577C100.197 284.852 100.252 284.982 100.336 285.231C100.43 285.512 100.502 285.801 100.548 286.093C100.55 286.111 100.553 286.129 100.554 286.141L100.573 286.363C100.583 286.511 100.587 286.66 100.584 286.808C100.578 287.134 100.565 287.261 100.513 287.514C100.402 288.06 100.254 288.423 99.9785 288.855C97.4788 288.095 94.8799 287.019 93.0806 285.051C92.7723 284.714 92.6014 284.496 92.3495 284.094C92.25 283.936 92.1567 283.773 92.0703 283.607C92.0231 283.516 91.9793 283.423 91.9349 283.33L91.8735 283.193L91.8724 283.187C91.7439 282.854 91.6392 282.513 91.5672 282.163L91.5257 281.941L91.5139 281.865C91.4968 281.712 91.4832 281.558 91.4769 281.404C91.4643 281.095 91.4841 280.791 91.5099 280.484C91.5108 280.474 91.5108 280.471 91.5112 280.464C91.513 280.455 91.5139 280.451 91.5162 280.439L91.5482 280.257C91.5722 280.133 91.6008 280.009 91.6331 279.886C91.6812 279.703 91.6557 279.547 91.604 279.406C92.1874 279.281 92.5324 278.325 91.8798 277.838C76.1299 266.092 60.206 253.546 50.2167 236.271C39.6318 217.967 36.3782 195.621 41.4748 175.086C44.4065 163.274 50.0592 152.238 57.9591 142.978C58.6479 142.17 57.4806 140.992 56.7868 141.805C42.464 158.594 35.702 180.809 37.837 202.745C38.8831 213.493 41.9386 224.06 46.8983 233.659C51.4245 242.42 57.5503 250.242 64.5022 257.204C72.5009 265.214 81.4991 272.143 90.5549 278.904C90.3208 278.972 90.1161 279.136 90.0347 279.446C89.6976 280.732 89.7489 282.136 90.1866 283.391C90.9117 285.472 92.5159 287.059 94.3523 288.209C95.9607 289.217 97.7587 289.915 99.5689 290.464C99.9246 290.572 100.202 290.442 100.38 290.223C100.733 290.316 101.096 290.165 101.308 289.855C102.148 288.627 102.379 287.106 102.147 285.655C101.913 284.191 101.111 282.906 99.9443 282.008Z" fill="#332F28"/>
<path d="M94.1509 205.823C93.3892 202.517 92.1784 199.326 90.5745 196.337C90.0699 195.397 88.6382 196.233 89.1431 197.174C96.0812 210.105 94.6757 226.949 85.6066 238.51C84.9553 239.34 86.1206 240.521 86.7788 239.682C94.1984 230.224 96.8439 217.514 94.1509 205.823Z" fill="#332F28"/>
<path d="M94.5959 251.261C93.9583 250.423 92.518 251.248 93.1643 252.097C100.152 261.283 106.055 271.253 110.746 281.798C111.179 282.771 112.608 281.928 112.178 280.961C107.486 270.417 101.584 260.446 94.5959 251.261Z" fill="#332F28"/>
<path d="M89.3132 112.249C89.2881 112.19 89.2755 112.132 89.2314 112.072C82.1312 102.524 78.6422 90.7335 78.6659 78.8839C78.6896 67.0048 82.1795 55.1004 88.9376 45.2973C95.6313 35.5872 105.436 28.173 116.299 23.7022C127.168 19.229 139.181 17.5373 150.853 18.9986C163.272 20.5535 176.705 25.7981 183.564 36.8774C186.847 42.1798 188.585 48.6852 187.474 54.9001C186.545 60.0991 182.591 67.3023 176.199 65.479C171.357 64.0979 168.891 58.1747 166.682 54.1663C164.03 49.3562 160.609 45.3099 155.998 42.2646C146.768 36.1677 134.673 34.6889 124.224 38.2612C113.154 42.0455 104.194 50.7026 98.8646 60.9907C92.5259 73.2272 91.545 87.5386 93.8931 100.95C94.4131 103.919 95.1117 106.852 95.9423 109.748C96.0829 110.238 96.2186 110.73 96.3671 111.218C96.6768 112.236 98.2775 111.802 97.9658 110.777C97.8136 110.277 97.6751 109.77 97.5313 109.266C93.6373 95.6152 92.8974 80.7196 97.8904 67.2526C102.093 55.9177 110.637 45.8925 121.797 40.9747C132.467 36.2722 145.245 37.2173 155.033 43.6108C157.426 45.1738 159.596 47.0704 161.448 49.2479C163.244 51.3601 164.571 53.7578 165.895 56.1799C168.161 60.3269 170.829 65.6713 175.758 67.0775C181.522 68.7216 186.202 63.9275 188.091 58.9605C190.302 53.1497 189.691 46.4608 187.39 40.781C182.39 28.44 170.16 21.4408 157.698 18.548C146.033 15.8402 133.674 16.3884 122.224 19.8416C110.835 23.2762 100.239 29.6146 92.2456 38.4729C84.1793 47.4122 79.1697 58.7399 77.5739 70.6482C75.9895 82.4701 77.7511 94.7957 83.1774 105.466C84.5041 108.075 86.0541 110.561 87.8004 112.909C87.8129 112.926 87.8302 112.932 87.8435 112.948C88.4444 113.658 89.6434 113.018 89.3132 112.249Z" fill="#332F28"/>
<path d="M156.95 253.744C154.417 251.854 150.301 249.709 147.736 252.787C146.743 253.98 146.33 255.516 146.248 257.044C146.14 259.038 146.664 261.04 146.353 263.028C146.283 263.473 146.467 263.914 146.932 264.048C147.325 264.16 147.882 263.91 147.951 263.469C148.233 261.67 147.965 259.911 147.903 258.11C147.857 256.789 147.984 255.404 148.702 254.258C150.517 251.362 154.18 253.733 156.113 255.176C156.475 255.446 157.036 255.232 157.247 254.879C157.499 254.458 157.307 254.011 156.95 253.744Z" fill="#332F28"/>
<path d="M217.628 228.319C217.307 228.194 216.845 228.398 216.692 228.7C215.427 231.193 214.163 233.686 212.898 236.179C212.417 237.128 213.847 237.968 214.33 237.015C215.483 234.742 216.636 232.468 217.79 230.195C220.128 231.317 221.926 233.461 222.633 235.956C222.923 236.98 224.523 236.545 224.232 235.515C223.296 232.213 220.816 229.554 217.628 228.319Z" fill="#332F28"/>
<path d="M139.388 280.499C138.02 287.85 137.366 295.312 137.457 302.79C137.47 303.856 139.128 303.859 139.115 302.79C139.026 295.46 139.645 288.147 140.987 280.94C141.181 279.897 139.583 279.45 139.388 280.499Z" fill="#332F28"/>
</svg>
