<svg width="239" height="140" viewBox="0 0 239 140" fill="none" xmlns="http://www.w3.org/2000/svg">
<path d="M33.0012 109.624C28.1553 112.05 22.6603 112.02 18.9537 109.561C19.8084 108.962 21.028 108.87 21.9376 109.386C22.2406 109.56 22.6298 109.453 22.8031 109.148C22.9765 108.843 22.8699 108.456 22.5648 108.282C21.1302 107.467 19.2427 107.663 17.9827 108.704C17.7151 108.392 17.4846 108.045 17.3056 107.689C17.3547 107.66 17.4008 107.623 17.4421 107.58C18.2814 106.695 19.7662 106.48 20.8237 107.09C21.1267 107.265 21.5154 107.161 21.6908 106.858C21.8663 106.554 21.7622 106.166 21.4586 105.991C20.0415 105.173 18.1724 105.345 16.9052 106.354C16.8989 106.271 16.8968 106.189 16.8994 106.108C16.9171 105.566 17.136 105.178 17.5691 104.921C18.0347 104.645 18.6581 104.632 19.3181 104.617L19.6691 104.608C23.2547 104.486 26.7295 102.506 28.9878 99.5009C28.6239 99.282 28.2635 99.0586 27.9067 98.8303C25.877 101.486 22.7977 103.232 19.626 103.34L19.2906 103.348C18.5329 103.364 17.6741 103.383 16.9217 103.829C16.1205 104.303 15.6616 105.099 15.6303 106.067C15.5805 107.607 16.654 109.528 18.1273 110.535C19.8363 111.703 21.8915 112.397 24.0949 112.615C27.153 112.916 30.4949 112.298 33.5836 110.752L43.4315 105.51C42.8438 105.349 42.2585 105.181 41.6763 105.006L33.0012 109.624Z" fill="black"/>
<path d="M156.114 104.377C155.847 109.508 153.228 114.019 149.444 115.869C149.414 115.883 149.383 115.898 149.352 115.912C149.379 115.107 149.821 114.304 150.518 113.901C150.821 113.726 150.925 113.337 150.749 113.034C150.573 112.73 150.185 112.626 149.881 112.802C148.683 113.495 147.988 114.895 148.091 116.258C147.763 116.299 147.433 116.305 147.118 116.278C147.115 116.262 147.111 116.246 147.107 116.23C146.793 115.158 147.306 113.884 148.276 113.33C148.58 113.155 148.686 112.767 148.511 112.463C148.337 112.159 147.95 112.053 147.645 112.228C146.381 112.951 145.646 114.422 145.755 115.856C145.368 115.6 145.175 115.262 145.167 114.822C145.158 114.323 145.435 113.81 145.728 113.267L145.883 112.976C147.295 110.279 147.467 106.929 146.355 103.784C146.013 102.816 145.564 101.909 145.024 101.083C144.476 101.046 143.927 101.007 143.379 100.967C144.127 101.911 144.733 103.006 145.158 104.208C146.153 107.021 146.007 110.002 144.758 112.387L144.61 112.664C144.269 113.296 143.882 114.013 143.898 114.846C143.914 115.736 144.358 116.492 145.148 116.975C145.655 117.284 146.285 117.473 146.957 117.539C147.555 117.598 148.186 117.56 148.794 117.426C148.865 117.43 148.938 117.422 149.011 117.401C149.067 117.384 149.119 117.36 149.166 117.331C149.455 117.247 149.736 117.14 150.002 117.009C154.194 114.96 157.091 110.028 157.383 104.444C157.431 103.525 157.343 102.44 157.182 101.253C156.759 101.281 156.335 101.305 155.911 101.324C156.07 102.48 156.159 103.523 156.114 104.377Z" fill="black"/>
<path d="M227.14 52.5024C225.884 48.3483 224.407 44.0195 222.126 40.5039C220.894 38.6055 219.518 37.1097 218.035 36.0577C215.88 34.5293 212.724 34.9123 210.851 36.9286C208.23 39.7508 209.29 44.0672 210.155 46.3891C211.018 48.7033 212.243 50.8698 213.428 52.965C214.089 54.134 214.773 55.3427 215.38 56.5542C217.422 60.633 218.112 64.0779 217.489 67.0855C216.721 70.7984 213.784 74.1413 209.634 76.028C205.553 77.8833 200.861 78.1724 197.23 78.2169C195.235 78.2416 193.229 78.1953 191.228 78.0783C191.047 78.4945 190.858 78.9069 190.661 79.3153C192.855 79.4559 195.058 79.5131 197.245 79.4861C201.001 79.4401 205.864 79.1369 210.16 77.1836C214.678 75.1301 217.883 71.451 218.733 67.3427C219.416 64.0447 218.69 60.3297 216.515 55.9858C215.894 54.7458 215.203 53.5225 214.534 52.3401C213.373 50.2878 212.173 48.1658 211.345 45.9457C210.582 43.8979 209.624 40.1155 211.781 37.7923C213.23 36.2324 215.654 35.9262 217.301 37.0934C218.652 38.0516 219.917 39.4317 221.061 41.1949C223.256 44.5777 224.696 48.8052 225.925 52.8697C228.061 59.9356 228.242 66.2331 226.462 71.5872C224.847 76.4432 221.402 80.8145 216.761 83.8957C212.545 86.694 207.331 88.4477 201.681 88.9675C196.613 89.4338 190.385 88.5011 185.147 87.6453C184.816 88.0251 184.477 88.3985 184.132 88.7652C186.994 89.236 190.195 89.7541 193.384 90.0687C196.287 90.355 199.181 90.4725 201.797 90.2317C207.656 89.6929 213.073 87.8675 217.463 84.9535C222.339 81.7159 225.963 77.1112 227.666 71.9875C229.531 66.3799 229.354 59.8243 227.14 52.5024Z" fill="black"/>
<path d="M190.661 79.3156C190.858 78.9072 191.047 78.4948 191.228 78.0786C191.899 76.537 192.463 74.9427 192.908 73.3032C194.178 68.6275 194.323 63.885 193.558 59.2947C191.698 48.1376 184.461 37.8797 174.92 31.6674C162.12 23.3336 145.869 21.5409 130.8 24.0328C115.731 26.5247 101.61 32.9626 88.1012 40.089C83.2394 42.6537 77.813 45.3831 72.5236 44.954C70.3258 37.3138 66.5751 25.0471 64.9529 24.3224C62.7811 23.3521 56.6388 28.5296 50.484 35.7828C46.1656 35.0327 41.6981 35.0875 37.3979 35.9405C32.5871 29.824 28.0331 25.6982 26.0946 26.3924C23.6804 27.2569 15.0112 51.7622 14.8335 52.2649C9.84747 61.2805 9.27345 72.4089 13.6281 82.4456C16.7228 89.5782 21.7857 94.913 27.9067 98.8304C28.2634 99.0588 28.6239 99.2822 28.9878 99.5011C32.8976 101.852 37.2014 103.656 41.6764 105.006C42.2587 105.181 42.8441 105.349 43.4316 105.51C47.7004 106.675 52.0957 107.446 56.4289 107.9C58.8487 106.111 60.6101 103.27 61.0738 100.117C61.4809 97.3506 60.2391 95.0041 58.9243 92.5198C57.5936 90.0047 56.2173 87.404 56.6845 84.3329C57.5816 78.434 63.5223 73.3463 68.6569 71.5545C68.9864 71.4388 69.3495 71.6132 69.4654 71.9447C69.581 72.2756 69.4065 72.6375 69.0751 72.7531C64.224 74.4462 58.7324 79.3118 57.9398 84.524C57.5361 87.1808 58.7558 89.4856 60.0469 91.9259C61.3991 94.4818 62.7977 97.1245 62.3305 100.302C61.886 103.324 60.3577 106.09 58.2065 108.069C59.1832 108.153 60.1554 108.221 61.1208 108.274C64.9772 108.486 68.8411 108.469 72.6971 108.265C72.9469 107.976 73.1891 107.68 73.4226 107.378C73.6372 107.1 74.0363 107.048 74.3131 107.263C74.591 107.477 74.6424 107.875 74.4284 108.153C74.4263 108.156 74.4241 108.158 74.422 108.161C79.3274 107.831 84.2157 107.209 89.0549 106.38C102.343 104.104 115.486 100.323 128.967 100.223C133.764 100.187 138.577 100.619 143.379 100.967C143.927 101.007 144.476 101.046 145.024 101.083C148.664 101.327 152.297 101.488 155.911 101.324C156.335 101.305 156.759 101.282 157.183 101.253C158.773 101.146 160.359 100.971 161.94 100.706C164.056 100.353 166.137 99.8169 168.158 99.1151C166.738 96.5324 164.412 94.5648 161.702 93.7143C160.519 93.3431 159.304 93.1659 158.019 92.9784C156.563 92.766 155.058 92.5463 153.613 92.0194C150.606 90.9224 147.958 88.8193 146.157 86.0977C144.003 82.8426 143.233 78.8635 142.553 75.3529C142.487 75.0088 142.712 74.6756 143.056 74.6089C143.4 74.5419 143.733 74.7669 143.8 75.1115C144.457 78.5057 145.202 82.3532 147.216 85.3973C148.868 87.8941 151.295 89.8221 154.048 90.8265C155.37 91.3089 156.746 91.5097 158.202 91.7221C159.48 91.9085 160.802 92.1014 162.082 92.5028C165.163 93.4698 167.796 95.7244 169.363 98.6745C173.558 97.0625 177.474 94.7324 180.897 91.8323L181 90.6091C181.03 90.2597 181.337 90.0003 181.686 90.0298C182.002 90.0666 182.245 90.3123 182.266 90.6174C182.909 90.0208 183.531 89.4032 184.132 88.7656C184.477 88.3988 184.816 88.0254 185.147 87.6456C187.341 85.1283 189.208 82.3312 190.661 79.3156Z" fill="#9F8170"/>
<path d="M21.4077 42.5042L21.5223 42.5261C21.8209 42.5556 22.1075 42.3693 22.194 42.0707C23.2126 38.5495 25.2048 33.8991 26.7454 30.6739C27.9854 31.7047 30.9488 34.1958 34.4281 37.3187C34.6891 37.5532 35.0906 37.5315 35.3248 37.2705C35.5589 37.0095 35.5374 36.6081 35.2764 36.374C30.6724 32.2415 26.9645 29.2077 26.9277 29.1775C26.7777 29.0547 26.5805 29.0072 26.3902 29.0489C26.2008 29.0903 26.0407 29.216 25.9556 29.3901C24.3582 32.6564 22.0947 37.8448 20.9742 41.7181C20.8766 42.0546 21.0708 42.4068 21.4077 42.5042Z" fill="black"/>
<path d="M54.9514 34.9856C55.183 35.2483 55.5851 35.273 55.8475 35.041C59.3506 31.9452 62.3332 29.4769 63.5812 28.4561C65.0968 31.6937 67.0531 36.3601 68.0444 39.8883C68.1174 40.1474 68.3407 40.3237 68.5937 40.3487C68.6699 40.3562 68.749 40.3497 68.8275 40.3278C69.1649 40.2328 69.3617 39.8825 69.2671 39.5448C68.1762 35.664 65.9534 30.4577 64.3812 27.1786C64.2974 27.0037 64.1384 26.8768 63.9491 26.8339C63.7618 26.7898 63.5619 26.8364 63.4107 26.9583C63.3735 26.9882 59.6422 29.993 55.0068 34.0896C54.744 34.3221 54.719 34.7233 54.9514 34.9856Z" fill="black"/>
<path d="M39.3728 45.8732C38.4984 45.8464 37.7651 46.6297 37.7348 47.6225C37.7045 48.6153 38.3886 49.4418 39.2632 49.4685C40.1375 49.4952 40.8709 48.7119 40.9012 47.7192C40.9315 46.7264 40.2472 45.8999 39.3728 45.8732Z" fill="black"/>
<path d="M51.483 46.2433C50.6085 46.2166 49.8752 46.9997 49.8449 47.9926C49.8146 48.9855 50.4988 49.8119 51.3732 49.8387C52.2476 49.8654 52.9809 49.0822 53.0112 48.0894C53.0415 47.0964 52.3573 46.27 51.483 46.2433Z" fill="black"/>
<path d="M50.9411 57.3733C50.5998 57.315 50.2693 57.5544 50.2147 57.9006C50.1665 58.2023 49.8744 58.5077 49.4133 58.7388C48.503 59.1941 47.2764 59.2267 46.4966 58.816C45.8605 58.4812 45.6407 57.7826 45.6335 57.0858C45.6397 56.9872 45.6427 56.8884 45.6427 56.7901C45.6752 56.3329 45.7885 55.8994 45.9233 55.5962C45.9384 55.562 45.9503 55.5273 45.9591 55.4921C46.0546 55.4174 46.1492 55.3419 46.2427 55.2649C46.6232 54.9515 46.9953 54.6086 47.2133 54.1721C47.4312 53.7356 47.4686 53.1846 47.1915 52.7804L47.0655 52.6274C46.832 52.3891 46.4998 52.2466 46.1699 52.1559C45.5856 51.995 44.9649 51.9626 44.3668 52.0613C43.9594 52.1286 43.549 52.2639 43.2488 52.5404C42.3457 53.3726 43.2315 54.5715 44.119 55.3163C44.1184 55.3915 44.1312 55.468 44.1591 55.5425C44.2752 55.8531 44.3618 56.2927 44.3664 56.751C44.3603 56.8492 44.3572 56.9481 44.3574 57.047C44.3075 57.7421 44.0455 58.4258 43.3904 58.7211C42.5869 59.0831 41.364 58.9766 40.4841 58.4662C40.0373 58.2076 39.7643 57.8844 39.7348 57.5801C39.701 57.2316 39.3912 56.9734 39.0415 57.0097C38.6926 57.0434 38.4372 57.3537 38.471 57.7028C38.5414 58.4298 39.0303 59.0913 39.8475 59.5646C40.4301 59.9024 41.1131 60.1087 41.7947 60.1759C42.5482 60.2502 43.2999 60.1545 43.9126 59.8783C44.3409 59.6853 44.6766 59.4111 44.9339 59.0858C45.1709 59.4264 45.4893 59.7206 45.905 59.9393C46.3232 60.1592 46.8152 60.2947 47.3334 60.3458C48.2195 60.4328 49.1822 60.2746 49.9818 59.8742C50.8263 59.4513 51.3542 58.8213 51.4686 58.0998C51.5236 57.7534 51.2874 57.428 50.9411 57.3733Z" fill="black"/>
<path d="M71.3584 48.5675L55.8115 52.8948C55.4736 52.9888 55.276 53.3391 55.3698 53.6766C55.4423 53.9366 55.6663 54.1135 55.9193 54.1385C55.9955 54.146 56.074 54.1397 56.1519 54.1181L71.6988 49.791C72.0367 49.6969 72.2342 49.3468 72.1404 49.0092C72.0457 48.6705 71.6942 48.473 71.3584 48.5675Z" fill="black"/>
<path d="M72.4695 54.1444L55.7657 54.8058C55.4154 54.8199 55.1426 55.115 55.1564 55.4656C55.1693 55.7858 55.4174 56.0414 55.7277 56.072L55.8162 56.0748L72.52 55.4133C72.8703 55.3993 73.1431 55.1042 73.1293 54.7536C73.1152 54.4034 72.8208 54.1299 72.4695 54.1444Z" fill="black"/>
<path d="M71.8617 60.3787L55.7659 56.8508C55.426 56.7752 55.0849 56.992 55.0096 57.335C54.9348 57.6773 55.1515 58.0158 55.494 58.0909L71.5898 61.6188L71.6643 61.6305C71.9799 61.6616 72.2763 61.4522 72.346 61.1345C72.4208 60.7923 72.2041 60.4538 71.8617 60.3787Z" fill="black"/>
<path d="M19.1679 48.8659C19.062 49.2 19.2475 49.5568 19.5819 49.6626L34.9679 54.532L35.0976 54.5584C35.3898 54.5872 35.6725 54.4092 35.7648 54.118C35.8706 53.784 35.6853 53.4271 35.3508 53.3213L19.9648 48.4521C19.6302 48.3452 19.2739 48.5316 19.1679 48.8659Z" fill="black"/>
<path d="M35.5475 55.6311C35.5738 55.2817 35.3175 54.9649 34.9616 54.951L18.2911 53.7046C17.9417 53.6782 17.637 53.9406 17.6109 54.29C17.585 54.6347 17.8391 54.9354 18.1813 54.9692L18.1968 54.9703L34.8672 56.2167C35.2166 56.2431 35.5213 55.9807 35.5475 55.6311Z" fill="black"/>
<path d="M35.4707 57.2474C35.4073 56.9022 35.0748 56.6726 34.7319 56.7369L18.5225 59.6987C18.1776 59.7619 17.9491 60.0926 18.0121 60.4373C18.0642 60.7224 18.2991 60.9282 18.5741 60.9553C18.6317 60.961 18.6912 60.9587 18.7508 60.9478L34.9602 57.986C35.305 57.9227 35.5335 57.5921 35.4707 57.2474Z" fill="black"/>
<path d="M181.686 90.0296C181.337 90.0001 181.03 90.2596 181 90.6089L180.898 91.8321L180.046 101.954C179.487 107.061 176.617 111.416 172.734 113.048C172.702 113.061 172.67 113.074 172.637 113.087C172.588 112.216 173.044 111.307 173.801 110.869C174.104 110.693 174.208 110.305 174.033 110.002C173.857 109.698 173.468 109.594 173.165 109.77C171.927 110.486 171.226 111.953 171.386 113.358C171.057 113.381 170.727 113.371 170.413 113.327C170.41 113.284 170.402 113.241 170.39 113.198C170.076 112.126 170.59 110.852 171.559 110.297C171.864 110.123 171.969 109.736 171.795 109.431C171.621 109.127 171.233 109.021 170.928 109.196C169.667 109.917 168.932 111.384 169.038 112.815C168.675 112.54 168.507 112.194 168.523 111.761C168.542 111.261 168.847 110.765 169.171 110.24L169.343 109.958C171.062 107.084 171.317 103.517 170.043 100.171C169.847 99.6553 169.619 99.1555 169.364 98.6743C167.796 95.7243 165.164 93.4696 162.082 92.5027C160.802 92.1014 159.48 91.9085 158.202 91.7219C156.746 91.5095 155.371 91.3088 154.048 90.8264C151.295 89.8219 148.869 87.8939 147.216 85.3972C145.202 82.353 144.457 78.5056 143.801 75.1113C143.734 74.7668 143.4 74.5418 143.056 74.6087C142.712 74.6754 142.487 75.0085 142.554 75.3528C143.233 78.8633 144.003 82.8425 146.157 86.0976C147.958 88.8191 150.606 90.9223 153.613 92.0193C155.058 92.5461 156.563 92.7658 158.019 92.9782C159.305 93.1658 160.519 93.3428 161.702 93.7141C164.413 94.5646 166.738 96.5323 168.159 99.1149C168.424 99.5971 168.658 100.101 168.856 100.623C170.008 103.647 169.794 106.731 168.253 109.306L168.089 109.575C167.713 110.187 167.286 110.88 167.255 111.712C167.221 112.601 167.621 113.381 168.382 113.908C168.946 114.298 169.684 114.536 170.471 114.614C171.389 114.705 172.373 114.577 173.226 114.218C177.528 112.41 180.7 107.65 181.311 102.076L182.266 90.7154C182.269 90.6821 182.269 90.6493 182.267 90.617C182.245 90.312 182.002 90.0664 181.686 90.0296Z" fill="black"/>
<path d="M74.313 107.263C74.0362 107.048 73.6371 107.1 73.4225 107.378C73.189 107.68 72.9468 107.976 72.697 108.265C67.1872 114.632 57.8818 117.583 53.4295 115.761C53.3393 115.724 53.2499 115.683 53.1611 115.639C53.9989 115.158 55.1041 115.115 55.9433 115.592C56.2492 115.766 56.6356 115.658 56.8093 115.354C56.9823 115.049 56.8754 114.661 56.5707 114.488C55.1586 113.686 53.3087 113.863 52.0497 114.861C51.7408 114.575 51.4706 114.254 51.2606 113.922C51.3289 113.89 51.3927 113.845 51.448 113.787C52.2875 112.902 53.7713 112.687 54.8293 113.296C55.1316 113.472 55.521 113.368 55.6965 113.064C55.8719 112.761 55.7681 112.373 55.4642 112.197C54.0045 111.354 52.062 111.563 50.7952 112.657C50.7647 112.218 50.907 111.859 51.2274 111.563C51.6253 111.196 52.2319 111.052 52.8744 110.9L53.2158 110.818C55.065 110.356 56.7739 109.387 58.2065 108.069C60.3577 106.09 61.886 103.324 62.3305 100.302C62.7977 97.1245 61.3992 94.4817 60.0469 91.926C58.7558 89.4858 57.5361 87.1808 57.9398 84.524C58.7324 79.3117 64.2241 74.4461 69.0751 72.7532C69.4064 72.6375 69.5811 72.2758 69.4654 71.9447C69.3495 71.6131 68.9863 71.4387 68.6569 71.5545C63.5223 73.3463 57.5816 78.434 56.6845 84.333C56.2174 87.404 57.5936 90.0046 58.9243 92.5198C60.2391 95.0041 61.4809 97.3506 61.0738 100.117C60.6101 103.27 58.8486 106.111 56.4289 107.9C55.3645 108.687 54.1729 109.27 52.9079 109.586L52.5818 109.665C51.8444 109.839 51.0084 110.037 50.3658 110.63C49.6817 111.262 49.3995 112.135 49.5715 113.089C49.8452 114.606 51.2968 116.259 52.9479 116.936C53.6221 117.212 54.3962 117.39 55.2462 117.474C60.7716 118.019 69.4725 114.571 74.4217 108.161C74.4238 108.158 74.426 108.156 74.4282 108.153C74.6423 107.875 74.5909 107.477 74.313 107.263Z" fill="black"/>
<path d="M189.875 62.8917L190.026 62.8886C190.374 62.8399 190.616 62.5188 190.567 62.1717C188.581 48.0486 179.559 36.3828 166.435 30.9653C166.112 30.8326 165.74 30.9858 165.606 31.3099C165.472 31.6341 165.626 32.0053 165.95 32.1391C178.654 37.3827 187.387 48.6759 189.309 62.3486C189.351 62.6445 189.59 62.8637 189.875 62.8917Z" fill="black"/>
<path d="M47.4896 74.0952C47.694 73.8103 47.6291 73.4137 47.3443 73.2091C47.0592 73.0041 46.6627 73.0696 46.4581 73.3543C45.6658 74.4569 44.7247 74.4952 44.2385 74.4252C43.5122 74.3162 42.797 73.7187 42.5746 73.0352C42.4662 72.7018 42.1081 72.5189 41.7746 72.6278C41.4409 72.7363 41.2585 73.0942 41.3671 73.4276C41.7395 74.5732 42.8428 75.4995 44.0498 75.6805C44.1084 75.6894 44.1669 75.6968 44.2249 75.7025C45.4802 75.8261 46.6619 75.2471 47.4896 74.0952Z" fill="black"/>
</svg>
