<svg width="200" height="158" viewBox="0 0 200 158" fill="none" xmlns="http://www.w3.org/2000/svg">
<g clip-path="url(#clip0_338_571)">
<path d="M125.165 144.682C122.378 148.321 114.977 157.991 109.262 156.123C108.954 156.023 108.669 155.882 108.412 155.709C108.388 155.69 108.363 155.672 108.336 155.657C107.509 155.067 106.996 154.139 107.018 153.163C107.026 152.841 106.77 152.574 106.448 152.567C106.126 152.544 105.859 152.814 105.852 153.136C105.829 154.129 106.195 155.083 106.832 155.842C105.695 155.996 104.741 155.749 104.038 155.109C103.215 154.359 102.926 153.227 103.073 152.542C103.14 152.227 102.939 151.917 102.625 151.85C102.31 151.783 102 151.983 101.932 152.298C101.761 153.098 101.936 154.271 102.639 155.274C101.293 154.933 100.082 153.991 99.5597 152.777C98.682 150.735 100.16 148.564 101.545 146.9C102.416 145.855 103.426 144.888 104.403 143.953C104.871 143.506 105.339 143.058 105.796 142.6C106.663 141.729 107.57 140.789 108.281 139.709C108.648 139.151 109.077 138.403 109.141 137.555C109.228 136.414 108.675 135.431 108.047 134.551C107.607 134.611 107.167 134.67 106.726 134.726C107.393 135.609 108.05 136.521 107.979 137.467C107.935 138.045 107.615 138.6 107.307 139.067C106.655 140.057 105.795 140.949 104.969 141.777C104.519 142.229 104.058 142.67 103.597 143.111C102.596 144.068 101.562 145.058 100.649 146.154C99.1749 147.924 97.3471 150.584 98.4884 153.238C99.338 155.213 101.503 156.579 103.722 156.579C103.831 156.579 103.939 156.575 104.048 156.569C104.068 156.567 104.087 156.565 104.106 156.562C104.632 156.834 105.327 157.05 106.209 157.05C106.725 157.05 107.304 156.976 107.95 156.797C108.244 156.975 108.562 157.122 108.899 157.232C109.522 157.435 110.154 157.529 110.791 157.529C116.795 157.529 123.198 149.168 126.091 145.39C130.055 140.214 132.792 134.228 134.045 128.019C133.613 128.191 133.18 128.36 132.745 128.525C131.466 134.297 128.864 139.851 125.165 144.682Z" fill="black"/>
<path d="M166.814 70.4319C169.082 67.8471 171.224 65.4058 171.871 63.4569C174.946 54.1892 169.964 46.3488 165.146 38.7669C161.561 33.1244 157.853 27.29 157.538 20.9367C157.239 14.9033 160.048 8.89378 164.869 5.25477C169.69 1.61506 176.239 0.560296 181.96 2.50281C187.748 4.46787 192.674 9.40778 195.475 16.0553C197.695 21.3229 198.666 27.5479 198.533 35.6456C198.381 44.8888 196.2 67.5959 179.276 78.7936C176.716 80.4877 171.13 83.3999 166.651 84.2338C166.688 84.6204 166.716 85.0072 166.737 85.3942C171.91 84.4666 178.088 80.9785 179.919 79.7662C192.162 71.6663 199.371 55.592 199.699 35.665C199.835 27.3995 198.835 21.0245 196.55 15.6025C193.62 8.64776 188.439 3.47073 182.335 1.39873C176.255 -0.665445 169.293 0.454881 164.166 4.32378C159.041 8.19255 156.055 14.5805 156.373 20.9948C156.704 27.6554 160.495 33.622 164.162 39.3921C169.05 47.083 173.665 54.3472 170.764 63.0896C170.192 64.814 168.126 67.1691 165.938 69.6625C165.001 70.7304 164.033 71.8344 163.129 72.9498C163.337 73.3218 163.535 73.6954 163.723 74.0705C164.699 72.8431 165.777 71.6141 166.814 70.4319Z" fill="black"/>
<path d="M8.56744 93.2458C13.3672 101.493 20.0577 108.859 27.7441 114.975C28.1665 115.311 28.5919 115.643 29.0202 115.972C35.2547 120.753 42.0952 124.721 49.0839 127.685C47.7262 124.481 46.8603 121.026 46.5307 117.437C45.9322 110.921 47.1358 104.517 50.0113 98.9158C50.1584 98.6294 50.5098 98.5159 50.7962 98.6633C51.0828 98.8105 51.1959 99.1618 51.0487 99.4482C48.3142 104.775 47.1221 111.125 47.6918 117.331C48.0485 121.214 49.0544 124.934 50.6489 128.33C50.7094 128.355 50.77 128.379 50.8306 128.403C59.2845 131.775 68.1571 133.919 77.1838 134.972C78.2578 132.332 79.0503 129.597 79.5368 126.825C79.5923 126.508 79.8927 126.294 80.2119 126.351C80.529 126.407 80.7412 126.709 80.6853 127.026C80.2033 129.774 79.4296 132.484 78.3868 135.107C87.7784 136.101 97.3239 135.923 106.727 134.726C107.167 134.67 107.607 134.612 108.047 134.551C111.135 134.126 114.206 133.592 117.249 132.953C122.504 131.85 127.727 130.43 132.746 128.525C133.181 128.36 133.614 128.191 134.045 128.019C134.455 127.855 134.864 127.687 135.271 127.516C133.954 124.36 133.113 120.963 132.789 117.437C132.19 110.921 133.394 104.517 136.27 98.9157C136.625 98.2238 137.011 97.5369 137.417 96.8733C137.585 96.5989 137.945 96.5134 138.219 96.6806C138.493 96.8488 138.579 97.2079 138.411 97.4825C138.02 98.1211 137.649 98.7825 137.307 99.4481C134.572 104.774 133.38 111.125 133.95 117.331C134.263 120.734 135.074 124.012 136.343 127.057C139.519 125.667 142.592 124.056 145.514 122.18C154.643 116.319 162.414 106.727 165.435 96.2423C161.905 81.8915 153.764 71.4348 142.693 67.5063C142.389 67.3987 142.231 67.0652 142.338 66.7618C142.446 66.4589 142.778 66.2999 143.083 66.4074C153.995 70.2793 162.144 80.2303 166.023 93.9116C166.633 91.1028 166.892 88.2459 166.737 85.394C166.716 85.007 166.687 84.6203 166.651 84.2336C166.327 80.7975 165.388 77.3789 163.723 74.0704C163.534 73.6953 163.336 73.3217 163.129 72.9497C162.603 72.0062 162.016 71.0726 161.365 70.1513C154.282 60.1217 141.242 55.9162 128.966 55.6575C116.69 55.3986 104.607 58.4069 92.4048 59.7742C83.6013 60.7608 73.6605 60.5132 67.2866 54.3613C64.9433 52.0993 63.2966 49.2933 61.7008 46.4346H61.701C59.5803 37.5403 54.536 28.0894 49.5387 20.7276C49.0367 19.9879 48.328 19.1666 47.4439 19.3C46.7871 19.3991 46.3382 19.9975 45.9792 20.5562C44.3261 23.1293 43.0039 25.9128 42.0423 28.816C36.0485 26.989 29.5943 26.9883 23.6545 28.8453C22.7075 26.1068 21.4383 23.4798 19.872 21.0418C19.513 20.4831 19.064 19.8846 18.4073 19.7856C17.5233 19.6522 16.8146 20.4735 16.3125 21.2132C11.3719 28.4917 7.6354 36.5853 5.29926 45.0663C-2.26649 60.0588 0.280944 79.0079 8.56744 93.2458Z" fill="#18B6AC"/>
<path d="M31.5626 48.7248C31.5619 48.8916 31.5602 49.0511 31.5585 49.2035C31.5543 49.623 31.5504 50.0103 31.5707 50.3672C31.532 51.0398 31.3895 51.3315 30.9717 51.5993C30.5222 51.8877 29.8284 51.8959 29.3222 51.6195C29.0714 51.4823 28.7721 51.2196 28.7721 50.7463C28.7721 50.4244 28.511 50.1633 28.189 50.1633C27.867 50.1633 27.606 50.4244 27.606 50.7463C27.606 51.5495 28.0276 52.2406 28.7627 52.6427C29.1864 52.8742 29.6684 52.9894 30.145 52.9891C30.6644 52.9891 31.1773 52.8525 31.601 52.5809C31.8243 52.4378 32.0052 52.2853 32.1513 52.1209C32.2946 52.2874 32.4716 52.4406 32.6905 52.5809C33.1196 52.8562 33.6332 52.996 34.1493 52.996C34.5595 52.996 34.9715 52.9074 35.3446 52.7286C36.1045 52.3636 36.5922 51.6635 36.6826 50.8073C36.7165 50.4874 36.4842 50.2001 36.1639 50.1662C35.8431 50.1343 35.5567 50.3644 35.5228 50.685C35.4615 51.2635 35.1177 51.5439 34.8398 51.6771C34.3694 51.9031 33.7446 51.871 33.3198 51.5991C32.9168 51.3409 32.7794 51.0265 32.7378 50.3676C32.7569 49.9875 32.7487 49.5634 32.7395 49.0864L32.7337 48.7249C32.972 48.5811 33.2055 48.4328 33.4333 48.2797C33.8713 47.9853 34.2985 47.6642 34.5403 47.2628C34.7819 46.8612 34.8061 46.361 34.4644 46.0024C34.4179 45.9537 34.3661 45.9088 34.3098 45.8673C34.0254 45.6579 33.628 45.538 33.235 45.4649C32.5392 45.3355 31.8048 45.3231 31.1018 45.4292C30.6231 45.5014 30.1433 45.6355 29.7988 45.8942C28.5512 46.8316 30.3826 48.1786 31.5626 48.7248Z" fill="black"/>
<path d="M20.6834 40.3865C20.377 40.4862 20.2096 40.8153 20.3089 41.1213C20.4088 41.4276 20.7371 41.5951 21.0437 41.4956C23.7381 40.6193 26.8374 41.105 29.1346 42.7609C29.238 42.8352 29.357 42.8711 29.4752 42.8711C29.6562 42.8711 29.8348 42.7871 29.9486 42.629C30.137 42.3677 30.0779 42.0032 29.8168 41.815C27.2236 39.9454 23.724 39.3982 20.6834 40.3865Z" fill="black"/>
<path d="M35.5532 42.8711C35.6714 42.8711 35.7905 42.8352 35.8938 42.7609C38.191 41.1045 41.2915 40.6197 43.9851 41.4956C44.292 41.595 44.6203 41.4276 44.7199 41.1213C44.8192 40.8152 44.6519 40.4861 44.3456 40.3865C41.3043 39.398 37.8051 39.9452 35.2118 41.8152C34.9507 42.0033 34.8915 42.3677 35.0799 42.6292C35.1936 42.7871 35.3721 42.8711 35.5532 42.8711Z" fill="black"/>
<path d="M40.504 46.6827C40.5716 46.6827 40.6401 46.6708 40.7071 46.646C44.458 45.253 48.464 44.855 52.2936 45.4959C52.6154 45.5483 52.9116 45.3345 52.9649 45.0171C53.0182 44.6993 52.8035 44.399 52.4861 44.3458C48.4562 43.6717 44.2434 44.0892 40.3012 45.5529C39.9994 45.6651 39.8454 46.0008 39.9576 46.3025C40.0449 46.5372 40.2675 46.6827 40.504 46.6827Z" fill="black"/>
<path d="M39.8867 47.5172C39.9316 47.8362 40.2283 48.0586 40.5454 48.0132C44.119 47.5094 47.8937 47.9869 51.1721 49.3575C51.2456 49.388 51.3219 49.4029 51.3967 49.4029C51.6247 49.4029 51.8414 49.2679 51.935 49.0444C52.0591 48.7472 51.9191 48.4058 51.6218 48.2814C48.1527 46.8314 44.1611 46.326 40.3825 46.8585C40.0637 46.9033 39.8417 47.1983 39.8867 47.5172Z" fill="black"/>
<path d="M40.2833 49.5833C43.7954 50.4887 47.205 52.0396 50.1431 54.0688C50.2442 54.1388 50.3598 54.1721 50.474 54.1721C50.659 54.1721 50.8412 54.0842 50.9542 53.9204C51.1374 53.6554 51.071 53.2924 50.8059 53.1094C47.7558 51.0031 44.2179 49.3931 40.5742 48.4542C40.2622 48.3745 39.9447 48.5614 39.8642 48.8733C39.784 49.185 39.9716 49.503 40.2833 49.5833Z" fill="black"/>
<path d="M23.5848 46.646C23.6517 46.6707 23.7203 46.6827 23.7878 46.6827C24.0245 46.6827 24.2474 46.5372 24.3344 46.3024C24.4466 46.0006 24.2926 45.6648 23.9908 45.5527C20.0491 44.0888 15.836 43.6709 11.8059 44.3456C11.4884 44.3988 11.2738 44.6992 11.3269 45.0169C11.3801 45.3343 11.6814 45.5481 11.9982 45.4957C15.8263 44.8559 19.8336 45.2536 23.5848 46.646Z" fill="black"/>
<path d="M23.7464 48.0132C24.0639 48.0612 24.3602 47.8364 24.4052 47.5172C24.4502 47.1983 24.2281 46.9033 23.9092 46.8584C20.1312 46.3261 16.139 46.8314 12.67 48.2813C12.3728 48.4058 12.2326 48.7471 12.3567 49.0444C12.4505 49.2678 12.6672 49.4028 12.8952 49.4028C12.9701 49.4028 13.0463 49.388 13.1198 49.3575C16.3979 47.9864 20.1717 47.5083 23.7464 48.0132Z" fill="black"/>
<path d="M24.4743 48.8733C24.394 48.5614 24.0748 48.3745 23.7642 48.4542C20.1206 49.3931 16.5826 51.0031 13.5325 53.1094C13.2674 53.2925 13.2012 53.6554 13.3842 53.9204C13.4972 54.0842 13.6795 54.1721 13.8645 54.1721C13.9787 54.1721 14.0943 54.1385 14.1954 54.0688C17.1335 52.0396 20.5431 50.4887 24.0552 49.5833C24.367 49.503 24.5546 49.185 24.4743 48.8733Z" fill="black"/>
<path d="M23.315 33.0649C23.4027 33.2989 23.6251 33.4435 23.861 33.4435C23.929 33.4435 23.9982 33.4313 24.0658 33.4063C24.3673 33.2933 24.5202 32.9572 24.4072 32.6555C23.2081 29.4554 21.6621 26.3758 19.8126 23.5026C19.6387 23.2318 19.2769 23.1535 19.0069 23.3278C18.7359 23.502 18.6579 23.8627 18.8321 24.1335C20.6368 26.9372 22.1451 29.9422 23.315 33.0649Z" fill="black"/>
<path d="M43.4479 30.5717C43.5077 30.5911 43.5683 30.6004 43.6282 30.6004C43.8738 30.6004 44.1024 30.4438 44.1827 30.1973C45.1248 27.3005 46.6779 24.5522 48.6737 22.2501C48.8847 22.0067 48.8585 21.6385 48.6154 21.4276C48.3717 21.2164 48.0036 21.2428 47.7929 21.4859C45.6955 23.905 44.0639 26.7928 43.0736 29.8368C42.9741 30.1429 43.1416 30.4721 43.4479 30.5717Z" fill="black"/>
<path d="M52.113 70.2562C42.3198 77.5694 30.1228 79.3073 20.2789 74.7895C19.9863 74.6557 19.6403 74.7836 19.5059 75.0762C19.3716 75.369 19.4999 75.715 19.7926 75.8492C23.5741 77.5847 27.6859 78.4348 31.8797 78.4348C39.032 78.4348 46.4215 75.9616 52.8106 71.1905C56.7885 68.2202 61.7868 63.2008 63.0104 56.1576C63.0653 55.8402 62.8529 55.5384 62.5358 55.4831C62.2163 55.4296 61.9162 55.6409 61.8613 55.9578C60.7032 62.6233 55.9209 67.4126 52.113 70.2562Z" fill="black"/>
<path d="M143.083 66.4076C142.779 66.2999 142.447 66.4591 142.339 66.762C142.231 67.0655 142.39 67.399 142.693 67.5065C153.765 71.435 161.906 81.8917 165.435 96.2425C166.166 99.2142 166.699 102.353 167.02 105.635C167.628 111.862 167.239 118.596 165.795 126.825C164.676 133.204 161.938 139.378 157.877 144.682C155.09 148.321 147.687 157.991 141.973 156.123C141.666 156.023 141.381 155.882 141.124 155.71C141.1 155.69 141.074 155.673 141.048 155.657C140.22 155.068 139.707 154.139 139.73 153.163C139.737 152.842 139.482 152.574 139.16 152.567C138.837 152.544 138.572 152.814 138.564 153.136C138.541 154.129 138.907 155.083 139.544 155.842C138.406 155.996 137.453 155.749 136.75 155.109C135.926 154.359 135.638 153.227 135.784 152.542C135.852 152.227 135.651 151.917 135.336 151.85C135.02 151.783 134.711 151.983 134.644 152.298C134.473 153.098 134.647 154.272 135.351 155.274C134.004 154.933 132.794 153.992 132.271 152.777C131.393 150.735 132.871 148.564 134.257 146.901C135.128 145.855 136.138 144.889 137.115 143.954C137.583 143.506 138.051 143.058 138.507 142.6C139.375 141.73 140.281 140.789 140.993 139.709C141.36 139.151 141.789 138.403 141.853 137.555C141.961 136.128 141.069 134.949 140.281 133.908L140.212 133.816C138.647 131.745 137.351 129.475 136.343 127.057C135.074 124.012 134.263 120.735 133.95 117.331C133.38 111.125 134.572 104.775 137.307 99.4482C137.649 98.7827 138.02 98.1213 138.412 97.4827C138.579 97.2079 138.493 96.8489 138.219 96.6807C137.945 96.5136 137.585 96.599 137.417 96.8735C137.011 97.537 136.625 98.2241 136.27 98.9159C133.394 104.517 132.19 110.921 132.789 117.437C133.113 120.963 133.955 124.36 135.272 127.517C136.316 130.02 137.66 132.373 139.281 134.519L139.352 134.612C140.047 135.531 140.765 136.48 140.69 137.467C140.647 138.045 140.326 138.601 140.019 139.067C139.367 140.057 138.507 140.949 137.681 141.777C137.231 142.229 136.77 142.67 136.309 143.111C135.308 144.068 134.274 145.058 133.361 146.154C131.887 147.924 130.059 150.584 131.2 153.238C132.05 155.213 134.215 156.579 136.434 156.579C136.543 156.579 136.651 156.575 136.76 156.569C136.779 156.568 136.799 156.565 136.818 156.562C137.343 156.834 138.039 157.05 138.921 157.05C139.436 157.05 140.016 156.977 140.662 156.797C140.956 156.975 141.273 157.122 141.611 157.232C142.234 157.435 142.866 157.529 143.503 157.529C149.507 157.529 155.91 149.168 158.803 145.391C162.977 139.939 165.792 133.589 166.943 127.026C168.406 118.69 168.799 111.857 168.18 105.522C167.779 101.419 167.051 97.5349 166.024 93.9119C162.144 80.2306 153.995 70.2795 143.083 66.4076Z" fill="black"/>
<path d="M82.7058 132.331C85.8642 133.087 89.8255 133.495 94.2892 133.495C104.905 133.495 118.352 131.189 130.532 125.789C130.827 125.659 130.96 125.315 130.829 125.02C130.699 124.726 130.355 124.592 130.06 124.724C112.994 132.289 93.4573 133.706 82.9774 131.197C82.6647 131.123 82.3495 131.315 82.2744 131.628C82.1996 131.941 82.3926 132.256 82.7058 132.331Z" fill="black"/>
<path d="M80.2121 126.351C79.893 126.294 79.5926 126.508 79.537 126.825C79.0506 129.598 78.258 132.332 77.1841 134.973C75.7872 138.407 73.9144 141.684 71.6186 144.682C68.8317 148.321 61.4319 157.991 55.715 156.123C55.4082 156.023 55.1237 155.883 54.8671 155.711C54.8425 155.69 54.8162 155.672 54.7886 155.656C53.9616 155.067 53.4491 154.139 53.4716 153.163C53.4793 152.842 53.2242 152.575 52.9022 152.567C52.5782 152.544 52.3135 152.814 52.306 153.137C52.2829 154.129 52.6486 155.083 53.2859 155.842C52.1486 155.996 51.195 155.749 50.4919 155.109C49.6684 154.359 49.3799 153.227 49.5266 152.542C49.5938 152.228 49.3934 151.917 49.0784 151.85C48.7626 151.783 48.4535 151.984 48.3861 152.298C48.215 153.098 48.3896 154.272 49.0931 155.274C47.7463 154.933 46.5362 153.992 46.0137 152.777C45.1356 150.735 46.6136 148.564 47.9992 146.901C48.8705 145.855 49.8814 144.887 50.859 143.952C51.3265 143.505 51.7938 143.058 52.2496 142.601C53.1165 141.73 54.0227 140.79 54.7347 139.709C55.1017 139.152 55.5311 138.404 55.5953 137.555C55.7036 136.128 54.8107 134.948 54.0232 133.908L53.954 133.816C52.667 132.113 51.5619 130.275 50.6494 128.331C49.0549 124.934 48.049 121.214 47.6923 117.331C47.1226 111.126 48.3146 104.775 51.0492 99.4484C51.1963 99.162 51.0833 98.8108 50.7966 98.6635C50.5102 98.516 50.1589 98.6296 50.0117 98.9161C47.1362 104.517 45.9328 110.922 46.5312 117.438C46.8607 121.026 47.7267 124.481 49.0844 127.685C50.1185 130.126 51.4381 132.421 53.0236 134.519L53.0934 134.611C53.7883 135.53 54.5072 136.48 54.4326 137.467C54.3888 138.046 54.0684 138.601 53.7611 139.068C53.1085 140.058 52.2484 140.95 51.4233 141.778C50.974 142.229 50.5135 142.669 50.053 143.11C49.0516 144.067 48.0165 145.058 47.1029 146.154C45.938 147.553 44.5527 149.507 44.5859 151.576C41.8146 153.624 38.9644 154.452 36.9402 153.791C36.6323 153.691 36.3471 153.55 36.09 153.377C36.0663 153.358 36.0413 153.341 36.0152 153.326C35.1872 152.736 34.6741 151.807 34.6964 150.831C34.7041 150.51 34.449 150.243 34.127 150.235C33.8014 150.202 33.5383 150.483 33.5308 150.805C33.5077 151.797 33.8734 152.751 34.5107 153.51C33.3734 153.664 32.4196 153.417 31.7168 152.777C30.8932 152.027 30.6046 150.895 30.7513 150.21C30.8185 149.896 30.6181 149.586 30.3031 149.518C29.9873 149.451 29.6782 149.652 29.6107 149.966C29.4396 150.767 29.6142 151.94 30.3183 152.943C28.9722 152.602 27.7607 151.66 27.2383 150.445C26.3602 148.403 27.8382 146.232 29.2238 144.569C30.0944 143.523 31.1048 142.557 32.0819 141.622C32.5499 141.174 33.0176 140.727 33.474 140.269C34.3416 139.398 35.248 138.457 35.9598 137.377C36.3265 136.82 36.7558 136.071 36.8198 135.223C36.9283 133.796 36.0357 132.617 35.2482 131.576L35.1785 131.484C31.8314 127.055 29.7127 121.71 29.0204 115.972C28.5922 115.644 28.1667 115.312 27.7443 114.975C27.7481 115.019 27.7517 115.062 27.7556 115.105C28.3361 121.428 30.5814 127.335 34.2481 132.187L34.3184 132.28C35.0133 133.199 35.732 134.148 35.6571 135.135C35.6135 135.713 35.2931 136.269 34.9858 136.735C34.3337 137.725 33.4734 138.617 32.6477 139.446C32.1979 139.897 31.737 140.338 31.2758 140.779C30.275 141.737 29.2405 142.726 28.3275 143.822C26.8535 145.592 25.0258 148.252 26.1671 150.906C27.0163 152.882 29.1816 154.247 31.4011 154.247C31.5095 154.247 31.618 154.244 31.7265 154.237C31.7462 154.236 31.7656 154.234 31.7847 154.231C32.3102 154.502 33.0055 154.719 33.888 154.719C34.4033 154.719 34.9826 154.645 35.6289 154.465C35.9226 154.643 36.2404 154.79 36.5779 154.9C37.1439 155.085 37.7585 155.175 38.4084 155.175C40.3499 155.175 42.6034 154.368 44.7984 152.857C44.8398 152.984 44.8876 153.111 44.9423 153.238C45.7915 155.214 47.9568 156.579 50.1763 156.579C50.2849 156.579 50.3933 156.576 50.5016 156.569C50.5214 156.568 50.5408 156.566 50.5598 156.563C51.0854 156.835 51.7807 157.051 52.6632 157.051C53.1785 157.051 53.7578 156.977 54.404 156.798C54.6975 156.975 55.0152 157.122 55.3527 157.232C55.9759 157.436 56.6077 157.53 57.2445 157.53C63.2484 157.53 69.6513 149.169 72.5442 145.391C74.9711 142.222 76.9385 138.749 78.3868 135.107C79.4296 132.485 80.2033 129.774 80.6853 127.027C80.7414 126.709 80.5293 126.407 80.2121 126.351Z" fill="black"/>
<path d="M10.406 66.9334C10.5195 67.0453 10.6676 67.1011 10.8153 67.1011C10.966 67.1011 11.1165 67.0431 11.2307 66.9275C11.4567 66.6981 11.4539 66.3287 11.2247 66.1027C8.29316 63.2132 6.4224 59.2029 6.09213 55.1004C5.76185 50.9979 6.96726 46.7398 9.39864 43.4188C9.58902 43.1589 9.53246 42.7941 9.27277 42.604C9.01285 42.4138 8.6481 42.4701 8.45795 42.7298C5.86341 46.2736 4.57736 50.8166 4.92985 55.1939C5.28221 59.5713 7.27825 63.8504 10.406 66.9334Z" fill="black"/>
</g>
<defs>
<clipPath id="clip0_338_571">
<rect width="200" height="158" fill="white"/>
</clipPath>
</defs>
</svg>
